<svg width="48" height="38" viewBox="0 0 48 38" fill="none" xmlns="http://www.w3.org/2000/svg">
<g clip-path="url(#clip0_993_486)">
<path d="M29.1416 8.62402H41.1395V12.0693H29.1416V8.62402Z" fill="white"/>
<path d="M29.1416 17.2373H41.1395V20.6826H29.1416V17.2373Z" fill="white"/>
<path d="M29.1416 25.8506H41.1395V29.2959H29.1416V25.8506Z" fill="white"/>
<path d="M44.5674 0H3.43187C2.52299 0.000912108 1.65161 0.364193 1.00893 1.01012C0.366264 1.65604 0.00481376 2.53184 0.00390625 3.44532V34.4532C0.00481376 35.3667 0.366264 36.2425 1.00893 36.8884C1.65161 37.5343 2.52299 37.8976 3.43187 37.8985H44.5674C45.4761 37.8971 46.3472 37.5337 46.9898 36.8879C47.6324 36.2421 47.994 35.3665 47.9953 34.4532V3.44532C47.9944 2.53184 47.633 1.65604 46.9903 1.01012C46.3477 0.364193 45.4763 0.000912108 44.5674 0ZM3.43187 3.44532H22.2856V34.4532H3.43187V3.44532ZM25.7136 34.4532V3.44532H44.5674L44.5708 34.4532H25.7136Z" fill="white"/>
</g>
<defs>
<clipPath id="clip0_993_486">
<rect width="48" height="37.92" fill="white"/>
</clipPath>
</defs>
</svg>
